<?xml version="1.0" standalone="no"?>
<!DOCTYPE svg PUBLIC "-//W3C//DTD SVG 20010904//EN"
 "http://www.w3.org/TR/2001/REC-SVG-20010904/DTD/svg10.dtd">
<svg version="1.0" xmlns="http://www.w3.org/2000/svg"
 width="200.000000pt" height="200.000000pt" viewBox="0 0 200.000000 200.000000"
 preserveAspectRatio="xMidYMid meet">
<metadata>
Created by potrace 1.11, written by Peter Selinger 2001-2013
</metadata>
<g transform="translate(0.000000,200.000000) scale(0.100000,-0.100000)"
fill="#000000" stroke="none">
<path d="M841 1954 c0 -11 3 -14 6 -6 3 7 2 16 -1 19 -3 4 -6 -2 -5 -13z"/>
<path d="M873 1767 c-29 -12 -55 -26 -59 -30 -4 -4 -15 -7 -25 -7 -10 0 -26
-11 -34 -24 -9 -13 -31 -31 -49 -40 -17 -8 -47 -31 -65 -51 -18 -20 -39 -34
-46 -31 -20 7 -70 -20 -99 -55 -23 -27 -26 -39 -25 -105 1 -70 2 -74 23 -74
13 0 31 -9 40 -19 16 -17 17 -33 12 -118 -8 -134 -9 -103 8 -380 l5 -82 -37
-10 c-20 -6 -50 -13 -66 -16 -16 -3 -42 -20 -58 -38 -15 -18 -39 -43 -52 -57
-40 -43 -116 -140 -143 -184 -33 -52 -39 -56 -77 -45 -17 5 -52 9 -78 9 l-48
0 0 -205 0 -205 1000 0 1000 0 0 345 0 345 -40 20 c-43 22 -45 26 -31 63 32
82 58 638 33 684 -17 31 -72 38 -304 38 l-196 0 -18 58 c-13 43 -27 66 -58 92
-83 70 -118 94 -149 100 -18 4 -40 15 -51 24 -14 13 -44 17 -140 19 -108 2
-127 -1 -173 -21z m79 -624 c8 -10 24 -34 35 -53 l20 -36 -136 1 c-75 0 -142
4 -149 9 -6 4 -12 3 -12 -3 0 -5 5 -11 12 -13 6 -2 8 -10 4 -16 -5 -8 -13 -9
-25 -2 -10 5 -21 7 -24 4 -3 -3 -13 8 -23 25 -10 17 -22 31 -26 31 -4 0 -8 6
-8 13 0 13 18 17 75 20 17 1 33 6 37 11 4 6 17 1 32 -13 l25 -24 58 31 c67 36
84 38 105 15z m487 -19 c12 -15 21 -32 21 -38 0 -6 -7 0 -16 12 -17 24 -43 29
-62 10 -6 -6 -15 -8 -19 -4 -8 8 32 46 47 46 5 0 18 -12 29 -26z m-40 -174
c-39 -47 -49 -79 -14 -50 12 10 15 10 15 -3 0 -18 -29 -37 -54 -37 -32 0 -16
43 34 91 28 27 50 54 51 61 0 10 2 10 6 1 2 -7 -15 -35 -38 -63z m-654 -9 c3
-10 5 -23 4 -27 -4 -22 2 -33 21 -39 31 -10 23 -22 -11 -17 -26 4 -30 2 -27
-14 2 -10 14 -21 28 -24 14 -3 26 -13 28 -21 2 -12 -8 -15 -55 -13 -32 1 -61
2 -65 3 -13 2 -9 33 11 86 11 27 22 58 25 68 7 23 33 22 41 -2z m369 -26 c-3
-53 -15 -77 -36 -72 -10 3 -26 -2 -35 -11 -9 -10 -19 -17 -22 -17 -3 0 -5 -12
-5 -27 1 -18 -3 -28 -11 -28 -8 0 -20 -8 -27 -17 -22 -30 -64 -28 -99 5 -29
27 -63 95 -52 105 2 3 23 -1 46 -8 41 -12 43 -12 82 20 55 44 127 85 145 82
10 -2 14 -13 14 -32z m-253 -221 c14 -17 0 -19 -36 -2 -29 13 -31 24 -8 50 17
19 18 19 25 -7 3 -14 12 -33 19 -41z m-63 -182 c3 -9 -2 -13 -14 -10 -9 1 -19
9 -22 16 -3 9 2 13 14 10 9 -1 19 -9 22 -16z m-678 -209 c-1 -21 -19 -35 -39
-28 -11 3 -21 10 -21 15 0 7 10 11 53 19 4 0 7 -2 7 -6z"/>
<path d="M127 1524 c-21 -11 -42 -14 -78 -9 l-49 7 0 -51 0 -51 58 0 c64 -1
98 -15 119 -51 13 -23 13 -23 8 11 -3 19 -7 62 -9 95 -2 32 -8 60 -12 62 -5 1
-22 -5 -37 -13z"/>
<path d="M181 1279 c-18 -60 -4 -319 17 -319 12 0 14 15 8 98 -4 53 -7 134 -7
180 0 45 -1 82 -3 82 -2 0 -8 -18 -15 -41z"/>
<path d="M0 775 c0 -198 1 -205 20 -205 11 0 28 8 38 18 15 15 17 28 12 73 -4
30 -13 104 -20 164 -14 118 -23 155 -40 155 -6 0 -10 -72 -10 -205z"/>
<path d="M307 848 c-4 -51 -10 -112 -13 -135 -6 -38 -4 -43 13 -43 18 0 20 8
22 135 2 154 -13 183 -22 43z"/>
</g>
</svg>
