<svg version="1" xmlns="http://www.w3.org/2000/svg" width="266.667" height="266.667" viewBox="0 0 200 200"><path d="M84.1 4.6c0 1.1.3 1.4.6.6.3-.7.2-1.6-.1-1.9-.3-.4-.6.2-.5 1.3zm3.2 18.7c-2.9 1.2-5.5 2.6-5.9 3-.4.4-1.5.7-2.5.7s-2.6 1.1-3.4 2.4c-.9 1.3-3.1 3.1-4.9 4-1.7.8-4.7 3.1-6.5 5.1-1.8 2-3.9 3.4-4.6 3.1-2-.7-7 2-9.9 5.5-2.3 2.7-2.6 3.9-2.5 10.5.1 7 .2 7.4 2.3 7.4 1.3 0 3.1.9 4 1.9 1.6 1.7 1.7 3.3 1.2 11.8-.8 13.4-.9 10.3.8 38l.5 8.2-3.7 1c-2 .6-5 1.3-6.6 1.6-1.6.3-4.2 2-5.8 3.8-1.5 1.8-3.9 4.3-5.2 5.7-4 4.3-11.6 14-14.3 18.4-3.3 5.2-3.9 5.6-7.7 4.5-1.7-.5-5.2-.9-7.8-.9H0v41h200v-69l-4-2c-4.3-2.2-4.5-2.6-3.1-6.3 3.2-8.2 5.8-63.8 3.3-68.4-1.7-3.1-7.2-3.8-30.4-3.8h-19.6l-1.8-5.8c-1.3-4.3-2.7-6.6-5.8-9.2-8.3-7-11.8-9.4-14.9-10-1.8-.4-4-1.5-5.1-2.4-1.4-1.3-4.4-1.7-14-1.9-10.8-.2-12.7.1-17.3 2.1zm7.9 62.4c.8 1 2.4 3.4 3.5 5.3l2 3.6-13.6-.1c-7.5 0-14.2-.4-14.9-.9-.6-.4-1.2-.3-1.2.3 0 .5.5 1.1 1.2 1.3.6.2.8 1 .4 1.6-.5.8-1.3.9-2.5.2-1-.5-2.1-.7-2.4-.4-.3.3-1.3-.8-2.3-2.5-1-1.7-2.2-3.1-2.6-3.1-.4 0-.8-.6-.8-1.3 0-1.3 1.8-1.7 7.5-2 1.7-.1 3.3-.6 3.7-1.1.4-.6 1.7-.1 3.2 1.3l2.5 2.4 5.8-3.1c6.7-3.6 8.4-3.8 10.5-1.5zm48.7 1.9c1.2 1.5 2.1 3.2 2.1 3.8 0 .6-.7 0-1.6-1.2-1.7-2.4-4.3-2.9-6.2-1-.6.6-1.5.8-1.9.4-.8-.8 3.2-4.6 4.7-4.6.5 0 1.8 1.2 2.9 2.6zm-4 17.4c-3.9 4.7-4.9 7.9-1.4 5 1.2-1 1.5-1 1.5.3 0 1.8-2.9 3.7-5.4 3.7-3.2 0-1.6-4.3 3.4-9.1 2.8-2.7 5-5.4 5.1-6.1 0-1 .2-1 .6-.1.2.7-1.5 3.5-3.8 6.3zm-65.4.9c.3 1 .5 2.3.4 2.7-.4 2.2.2 3.3 2.1 3.9 3.1 1 2.3 2.2-1.1 1.7-2.6-.4-3-.2-2.7 1.4.2 1 1.4 2.1 2.8 2.4 1.4.3 2.6 1.3 2.8 2.1.2 1.2-.8 1.5-5.5 1.3-3.2-.1-6.1-.2-6.5-.3-1.3-.2-.9-3.3 1.1-8.6 1.1-2.7 2.2-5.8 2.5-6.8.7-2.3 3.3-2.2 4.1.2zm36.9 2.6c-.3 5.3-1.5 7.7-3.6 7.2-1-.3-2.6.2-3.5 1.1-.9 1-1.9 1.7-2.2 1.7-.3 0-.5 1.2-.5 2.7.1 1.8-.3 2.8-1.1 2.8s-2 .8-2.7 1.7c-2.2 3-6.4 2.8-9.9-.5-2.9-2.7-6.3-9.5-5.2-10.5.2-.3 2.3.1 4.6.8 4.1 1.2 4.3 1.2 8.2-2 5.5-4.4 12.7-8.5 14.5-8.2 1 .2 1.4 1.3 1.4 3.2zm-25.3 22.1c1.4 1.7 0 1.9-3.6.2-2.9-1.3-3.1-2.4-.8-5 1.7-1.9 1.8-1.9 2.5.7.3 1.4 1.2 3.3 1.9 4.1zm-6.3 18.2c.3.9-.2 1.3-1.4 1-.9-.1-1.9-.9-2.2-1.6-.3-.9.2-1.3 1.4-1 .9.1 1.9.9 2.2 1.6zM12 169.7c-.1 2.1-1.9 3.5-3.9 2.8-1.1-.3-2.1-1-2.1-1.5 0-.7 1-1.1 5.3-1.9.4 0 .7.2.7.6zm.7-122.1c-2.1 1.1-4.2 1.4-7.8.9L0 47.8V58h5.8c6.4.1 9.8 1.5 11.9 5.1 1.3 2.3 1.3 2.3.8-1.1-.3-1.9-.7-6.2-.9-9.5-.2-3.2-.8-6-1.2-6.2-.5-.1-2.2.5-3.7 1.3zm5.4 24.5c-1.8 6-.4 31.9 1.7 31.9 1.2 0 1.4-1.5.8-9.8-.4-5.3-.7-13.4-.7-18 0-4.5-.1-8.2-.3-8.2-.2 0-.8 1.8-1.5 4.1zM0 122.5C0 142.3.1 143 2 143c1.1 0 2.8-.8 3.8-1.8 1.5-1.5 1.7-2.8 1.2-7.3-.4-3-1.3-10.4-2-16.4C3.6 105.7 2.7 102 1 102c-.6 0-1 7.2-1 20.5z"/><path d="M30.7 115.2c-.4 5.1-1 11.2-1.3 13.5-.6 3.8-.4 4.3 1.3 4.3 1.8 0 2-.8 2.2-13.5.2-15.4-1.3-18.3-2.2-4.3z"/></svg>